# xmcd
#
# Track frame offsets:
#	150
#	21152
#	42160
#	89272
#
# Disc length: 1821 seconds
#
# Revision: 1
# Processed by: cddbd v1.5.2PL0 Copyright (c) Steve Scherf et al.
# Submitted via: EasyCDDAExtractor 10.5.1.1
#
DISCID=26071b04
DTITLE=Mary J Blige - Rainy dayz
DYEAR=2002
DGENRE=Pop
TTITLE0=Rainy dayz (Album Version)
TTITLE1=Rainy dayz (Full phatt remix)
TTITLE2=Rainy dayz (Thunderpuss extended mix)
TTITLE3=Rainy dayz (Video)
EXTD=
EXTT0=
EXTT1=
EXTT2=
EXTT3=
PLAYORDER=
